<svg width="14" height="14" viewBox="0 0 14 14" fill="none" xmlns="http://www.w3.org/2000/svg">
<path d="M13.5804 7.81165C13.8519 7.45962 14 7 14 6.43858C14 5.40843 13.123 4.45422 12.0114 4.45422H10.0932C10.3316 3.97931 10.6591 3.39024 10.6591 2.54516C10.6591 0.948063 10.022 0 8.39207 0C7.57189 0 7.26753 1.03682 7.11159 1.83827C7.01843 2.31708 6.93041 2.76938 6.65973 3.04005C6.01524 3.68457 5.03125 5.25 4.44013 5.56787C4.38028 5.59308 4.3038 5.61293 4.22051 5.62866C4.06265 5.39995 3.79889 5.25 3.5 5.25H0.875C0.391754 5.25 0 5.64175 0 6.125V13.125C0 13.6082 0.391754 14 0.875 14H3.5C3.98325 14 4.375 13.6082 4.375 13.125V12.886C5.26354 12.886 7.12816 14.0002 9.22728 13.9996C9.37781 13.9997 10.2568 14.0004 10.3487 13.9996C11.9697 14 12.8713 13.0183 12.8188 11.5443C13.2325 11.0596 13.4351 10.3593 13.3172 9.70944C13.6578 9.17552 13.7308 8.42237 13.5804 7.81165ZM0.875 13.125V6.125H3.5V13.125H0.875ZM12.4692 7.5565C12.9062 7.875 12.9062 9.1875 12.3159 9.48875C12.6856 10.1111 12.3529 10.9439 11.9053 11.1839C12.1321 12.6206 11.3869 13.1146 10.3409 13.1246C10.2504 13.1255 9.32247 13.1246 9.22731 13.1246C7.23316 13.1246 5.54296 12.011 4.37503 12.011V6.44287C5.40611 6.44287 6.35212 4.58516 7.27847 3.65879C8.11368 2.82357 7.83527 1.43153 8.3921 0.874727C9.78414 0.874727 9.78414 1.84589 9.78414 2.54518C9.78414 3.69879 8.94893 4.21561 8.94893 5.32924H12.0114C12.6329 5.32924 13.1223 5.88607 13.125 6.44287C13.1277 6.99967 12.9062 7.4375 12.4692 7.5565ZM2.84375 11.8125C2.84375 12.1749 2.54994 12.4688 2.1875 12.4688C1.82506 12.4688 1.53125 12.1749 1.53125 11.8125C1.53125 11.4501 1.82506 11.1562 2.1875 11.1562C2.54994 11.1562 2.84375 11.4501 2.84375 11.8125Z" fill="white"/>
</svg>
