<svg width="14" height="14" viewBox="0 0 14 14" fill="none" xmlns="http://www.w3.org/2000/svg">
<path d="M13.5804 6.18834C13.7307 5.5776 13.6577 4.82444 13.3172 4.29056C13.4351 3.64065 13.2324 2.94041 12.8188 2.45566C12.8713 0.981694 11.9697 6.94198e-07 10.3487 0.000383506C10.2568 -0.000436805 9.37779 0.000301475 9.22727 0.000383506C7.12558 -0.000190712 5.3571 1.09375 4.37499 1.09375H4.07845C3.92423 0.957714 3.72183 0.874999 3.49999 0.874999H0.874998C0.391753 0.874999 0 1.26675 0 1.75V8.74998C0 9.23323 0.391753 9.62498 0.874998 9.62498H3.49999C3.98324 9.62498 4.37499 9.23323 4.37499 8.74998V8.40871C4.39823 8.41598 4.42019 8.42372 4.44012 8.43211C5.03124 8.74998 6.01523 10.3154 6.65972 10.9599C6.93042 11.2306 7.01842 11.6829 7.11158 12.1617C7.26752 12.9632 7.57188 14 8.39205 14C10.022 14 10.6591 13.0519 10.6591 11.4548C10.6591 10.6097 10.3317 10.0207 10.0932 9.54577H12.0114C13.123 9.54577 14 8.59158 14 7.56141C14 6.99999 13.8519 6.54037 13.5804 6.18834ZM3.49999 8.74998H0.874998V1.75H3.49999V8.74998ZM12.0113 8.67074H8.94888C8.94888 9.78437 9.78409 10.3012 9.78409 11.4548C9.78409 12.1541 9.78409 13.1252 8.39205 13.1252C7.83525 12.5684 8.11364 11.1764 7.27843 10.3412C6.49621 9.55897 5.32959 7.55712 4.49435 7.55712H4.37499V1.98898H4.49435C5.4432 1.98898 7.27843 0.875355 9.22727 0.875355C9.32242 0.875355 10.2503 0.874534 10.3409 0.875355C11.3868 0.885417 12.132 1.37941 11.9053 2.81605C12.3528 3.05612 12.6856 3.88888 12.3158 4.51125C12.9062 4.81249 12.9062 6.12499 12.4692 6.44349C12.9062 6.56249 13.1277 7.00032 13.125 7.55712C13.1222 8.11394 12.6329 8.67074 12.0113 8.67074ZM2.84374 7.43749C2.84374 7.79993 2.54994 8.09374 2.1875 8.09374C1.82506 8.09374 1.53125 7.79993 1.53125 7.43749C1.53125 7.07505 1.82506 6.78124 2.1875 6.78124C2.54994 6.78124 2.84374 7.07505 2.84374 7.43749Z" fill="white"/>
</svg>
