<svg width="30" height="30" viewBox="0 0 30 30" fill="none" xmlns="http://www.w3.org/2000/svg">
<path fill-rule="evenodd" clip-rule="evenodd" d="M3 0C1.34315 0 0 1.34315 0 3V27C0 28.6569 1.34315 30 3 30H27C28.6569 30 30 28.6569 30 27V3C30 1.34315 28.6569 0 27 0H3ZM7.11701 9.58425C7.29895 9.74964 7.39405 9.99359 7.36924 10.2375V19.0777C7.42712 19.3961 7.32375 19.7228 7.10048 19.9543L5 22.5055V22.8363H10.9541V22.5013L8.85363 19.9543C8.62621 19.7228 8.51871 19.4002 8.56419 19.0777V11.4325L13.7906 22.8404H14.3984L18.8929 11.4325V20.5208C18.8929 20.7606 18.8929 20.8102 18.7358 20.9673L17.1191 22.5344V22.8693H24.9628V22.5344L23.404 21.0046C23.2675 20.9012 23.1972 20.7275 23.2262 20.558V9.31135C23.1972 9.14182 23.2675 8.96816 23.404 8.86479L25 7.33492V7H19.4718L15.5313 16.8284L11.0492 7H5.25222V7.33492L7.11701 9.58425Z" fill="#BDCBDA"/>
</svg>
