<svg width="30" height="31" viewBox="0 0 30 31" fill="none" xmlns="http://www.w3.org/2000/svg">
<path d="M26.7857 0.142925H3.21429C1.43973 0.142925 0 1.58266 0 3.35721V26.9286C0 28.7032 1.43973 30.1429 3.21429 30.1429H26.7857C28.5603 30.1429 30 28.7032 30 26.9286V3.35721C30 1.58266 28.5603 0.142925 26.7857 0.142925ZM23.5112 10.7769C23.5246 10.9644 23.5246 11.1586 23.5246 11.3461C23.5246 17.1519 19.1049 23.8416 11.029 23.8416C8.53795 23.8416 6.22768 23.1184 4.28571 21.8728C4.64062 21.913 4.98214 21.9264 5.34375 21.9264C7.39955 21.9264 9.28795 21.23 10.7946 20.0514C8.86607 20.0112 7.24554 18.7456 6.68973 17.0045C7.36607 17.105 7.97545 17.105 8.67188 16.9242C6.66295 16.5157 5.15625 14.7478 5.15625 12.6117V12.5581C5.73884 12.8862 6.42187 13.0871 7.13839 13.1139C6.536 12.7132 6.04218 12.1696 5.70098 11.5316C5.35979 10.8937 5.18185 10.1811 5.18304 9.45766C5.18304 8.64069 5.39732 7.89069 5.77902 7.24114C7.94196 9.90632 11.1897 11.6474 14.8326 11.8349C14.2098 8.85498 16.4397 6.43757 19.1183 6.43757C20.3839 6.43757 21.5223 6.96659 22.3259 7.82373C23.317 7.63623 24.2679 7.26792 25.1116 6.76569C24.7835 7.78355 24.0938 8.64069 23.183 9.1831C24.067 9.08935 24.9241 8.84159 25.7143 8.50007C25.1183 9.3773 24.3683 10.1541 23.5112 10.7769Z" fill="#BDCBDA"/>
</svg>
