<svg width="30" height="30" viewBox="0 0 30 30" fill="none" xmlns="http://www.w3.org/2000/svg">
<path fill-rule="evenodd" clip-rule="evenodd" d="M3 0C1.34315 0 0 1.34315 0 3V27C0 28.6569 1.34315 30 3 30H27C28.6569 30 30 28.6569 30 27V3C30 1.34315 28.6569 0 27 0H3ZM21.9249 22.7604L24.943 8.52695C25.2109 7.27237 24.4921 6.78126 23.6706 7.08932L5.92793 13.9248C4.718 14.398 4.73585 15.0766 5.72255 15.3847L10.2587 16.8045L20.7953 10.17C21.2909 9.83957 21.7418 10.0226 21.3713 10.353L12.8482 18.0546L12.5178 22.738C12.9911 22.738 13.1964 22.5327 13.442 22.2871L15.6609 20.153L20.2596 23.5417C21.1034 24.0149 21.6972 23.7649 21.9249 22.7604Z" fill="#BDCBDA"/>
</svg>
