<svg width="30" height="34" viewBox="0 0 30 34" fill="none" xmlns="http://www.w3.org/2000/svg">
<path d="M19.9029 16.15C19.9029 17.187 19.1314 18.037 18.1543 18.037C17.1943 18.037 16.4057 17.187 16.4057 16.15C16.4057 15.113 17.1771 14.263 18.1543 14.263C19.1314 14.263 19.9029 15.113 19.9029 16.15ZM11.8971 14.263C10.92 14.263 10.1486 15.113 10.1486 16.15C10.1486 17.187 10.9371 18.037 11.8971 18.037C12.8743 18.037 13.6457 17.187 13.6457 16.15C13.6629 15.113 12.8743 14.263 11.8971 14.263ZM30 3.502V34C25.6812 30.2152 27.0624 31.4681 22.0457 26.843L22.9543 29.988H3.51429C1.57714 29.988 0 28.424 0 26.486V3.502C0 1.564 1.57714 0 3.51429 0H26.4857C28.4229 0 30 1.564 30 3.502ZM25.1143 19.618C25.1143 14.144 22.6457 9.707 22.6457 9.707C20.1771 7.871 17.8286 7.922 17.8286 7.922L17.5886 8.194C20.5029 9.078 21.8571 10.353 21.8571 10.353C17.785 8.13975 13.0015 8.13935 9.05143 9.86C8.41714 10.149 8.04 10.353 8.04 10.353C8.04 10.353 9.46286 9.01 12.5486 8.126L12.3771 7.922C12.3771 7.922 10.0286 7.871 7.56 9.707C7.56 9.707 5.09143 14.144 5.09143 19.618C5.09143 19.618 6.53143 22.083 10.32 22.202C10.32 22.202 10.9543 21.437 11.4686 20.791C9.29143 20.145 8.46857 18.785 8.46857 18.785C8.72076 18.96 9.13661 19.187 9.17143 19.21C12.065 20.8169 16.1751 21.3434 19.8686 19.805C20.4686 19.584 21.1371 19.261 21.84 18.802C21.84 18.802 20.9829 20.196 18.7371 20.825C19.2514 21.471 19.8686 22.202 19.8686 22.202C23.6571 22.083 25.1143 19.618 25.1143 19.618Z" fill="#BDCBDA"/>
</svg>
