<svg width="30" height="31" viewBox="0 0 30 31" fill="none" xmlns="http://www.w3.org/2000/svg">
<path d="M26.7857 0.142925H3.21429C1.43973 0.142925 0 1.58266 0 3.35721V26.9286C0 28.7032 1.43973 30.1429 3.21429 30.1429H26.7857C28.5603 30.1429 30 28.7032 30 26.9286V3.35721C30 1.58266 28.5603 0.142925 26.7857 0.142925ZM18.5692 25.8371C18.0067 25.9376 17.7991 25.5894 17.7991 25.3014C17.7991 24.9398 17.8125 23.0916 17.8125 21.5983C17.8125 20.5536 17.4643 19.8907 17.0558 19.5425C19.5335 19.2679 22.1451 18.9264 22.1451 14.6474C22.1451 13.4286 21.7098 12.8193 21 12.0358C21.1138 11.7478 21.4955 10.5626 20.8862 9.02239C19.9554 8.73444 17.8259 10.2211 17.8259 10.2211C16.942 9.97328 15.9844 9.84605 15.0402 9.84605C14.096 9.84605 13.1384 9.97328 12.2545 10.2211C12.2545 10.2211 10.125 8.73444 9.1942 9.02239C8.58482 10.5559 8.95982 11.7411 9.08036 12.0358C8.37054 12.8193 8.03571 13.4286 8.03571 14.6474C8.03571 18.9063 10.5335 19.2679 13.0112 19.5425C12.6897 19.8304 12.4018 20.326 12.3013 21.0358C11.6652 21.3237 10.0379 21.8193 9.06696 20.105C8.45759 19.0469 7.35938 18.9599 7.35938 18.9599C6.27455 18.9465 7.28571 19.6429 7.28571 19.6429C8.00893 19.9777 8.51786 21.2635 8.51786 21.2635C9.16741 23.2523 12.2746 22.5827 12.2746 22.5827C12.2746 23.5135 12.2879 25.0269 12.2879 25.3014C12.2879 25.5894 12.0871 25.9376 11.5179 25.8371C7.09821 24.3572 4.00446 20.1519 4.00446 15.2367C4.00446 9.08935 8.70536 4.42194 14.8527 4.42194C21 4.42194 25.9821 9.08935 25.9821 15.2367C25.9888 20.1519 22.9888 24.3639 18.5692 25.8371ZM12 21.7456C11.8728 21.7724 11.7522 21.7188 11.7388 21.6318C11.7254 21.5313 11.8125 21.4443 11.9397 21.4175C12.067 21.4041 12.1875 21.4577 12.2009 21.5447C12.221 21.6318 12.1339 21.7188 12 21.7456ZM11.3638 21.6853C11.3638 21.7724 11.2634 21.8461 11.1295 21.8461C10.9821 21.8594 10.8817 21.7858 10.8817 21.6853C10.8817 21.5983 10.9821 21.5246 11.1161 21.5246C11.2433 21.5112 11.3638 21.5849 11.3638 21.6853ZM10.4464 21.6117C10.4196 21.6987 10.2857 21.7389 10.1719 21.6987C10.0446 21.6719 9.95759 21.5715 9.98438 21.4844C10.0112 21.3974 10.1451 21.3572 10.2589 21.384C10.3929 21.4242 10.4799 21.5246 10.4464 21.6117ZM9.62277 21.2501C9.5625 21.3237 9.43527 21.3103 9.33482 21.2099C9.23437 21.1228 9.20759 20.9956 9.27455 20.9353C9.33482 20.8617 9.46205 20.8751 9.5625 20.9755C9.64955 21.0626 9.68303 21.1965 9.62277 21.2501ZM9.01339 20.6407C8.95312 20.6809 8.83928 20.6407 8.76562 20.5402C8.69196 20.4398 8.69196 20.326 8.76562 20.2791C8.83928 20.2188 8.95312 20.2657 9.01339 20.3661C9.08705 20.4666 9.08705 20.5871 9.01339 20.6407ZM8.57812 19.9911C8.51786 20.0514 8.41741 20.0179 8.34375 19.951C8.27009 19.8639 8.2567 19.7635 8.31696 19.7166C8.37723 19.6563 8.47768 19.6898 8.55134 19.7568C8.625 19.8438 8.63839 19.9443 8.57812 19.9911ZM8.12946 19.4956C8.10268 19.5559 8.01562 19.5693 7.94196 19.5224C7.85491 19.4822 7.81473 19.4085 7.84152 19.3483C7.8683 19.3081 7.94196 19.288 8.02902 19.3215C8.11607 19.3684 8.15625 19.442 8.12946 19.4956Z" fill="#BDCBDA"/>
</svg>
