<svg width="24" height="12" viewBox="0 0 24 12" fill="none" xmlns="http://www.w3.org/2000/svg">
<path d="M23.3571 8.69977H8.30243C7.94741 8.69977 7.65957 8.99192 7.65957 9.35225V11.0922C7.65957 11.4525 7.94741 11.7447 8.30243 11.7447C8.65745 11.7447 23.3571 11.7447 23.3571 11.7447C23.7122 11.7447 24 11.4525 24 11.0922V9.35225C24 8.99192 23.7122 8.69977 23.3571 8.69977ZM23.3571 9.53674e-06H0.642857C0.287839 9.53674e-06 0 0.292157 0 0.652491V2.39244C0 2.75278 0.287839 3.04493 0.642857 3.04493H23.3571C23.7122 3.04493 24 2.75278 24 2.39244V0.652491C24 0.292157 23.7122 9.53674e-06 23.3571 9.53674e-06Z" fill="white"/>
</svg>
