<svg width="30" height="31" viewBox="0 0 30 31" fill="none" xmlns="http://www.w3.org/2000/svg">
<path d="M15 30.4824C23.2843 30.4824 30 23.7667 30 15.4824C30 7.19815 23.2843 0.482422 15 0.482422C6.71573 0.482422 0 7.19815 0 15.4824C0 23.7667 6.71573 30.4824 15 30.4824Z" fill="#2A5BDB"/>
<path d="M20.1936 7.95276L18.7078 8.4728L19.2423 10.1547L14.8158 7.86609L8.81885 11.1617V15.6068L11.2251 14.7545L11.2085 12.5402L14.8158 10.6252L18.2621 12.307L16.541 12.9406L17.0858 14.4924L21.8384 12.7941L20.1936 7.95276Z" fill="white"/>
<path d="M9.42939 22.8978L10.9152 22.3757L10.3807 20.6938L14.8052 22.9824L20.8021 19.6888V15.2437L18.398 16.0939L18.4145 18.3082L14.8052 20.2253L11.3589 18.5435L13.08 17.9079L12.5352 16.3581L7.78467 18.0544L9.42939 22.8978Z" fill="white"/>
</svg>
