<svg width="413" height="80" viewBox="0 0 413 80" fill="none" xmlns="http://www.w3.org/2000/svg">
<path d="M12.4476 58.9346H40.0251V64.7632H6.25809V15.8031H12.4476V58.9346ZM53.645 15.8031H59.8345V64.7632H53.645V15.8031ZM111.013 15.8031H117.065V64.7632H107.3L84.4674 23.826H82.9544V64.7632H76.9025V15.8031H86.6681L109.5 56.7403H111.013V15.8031ZM133.682 64.7632V15.8031H139.872V40.0774L165.111 15.8031H172.676L157.271 31.1632L174.533 64.7632H167.931L153.213 36.5117H151.7L139.872 47.826V64.7632H133.682Z" fill="white"/>
<path d="M274.201 32.466H282.867L291.807 57.8374H293.32L298.547 15.8031H304.53L298.34 64.7632H288.437L279.291 38.5689H277.778L268.562 64.7632H258.659L252.47 15.8031H258.521L263.748 57.8374H265.261L274.201 32.466ZM350.775 64.7632L345.686 49.746H324.161L319.071 64.7632H312.744L329.731 15.8031H340.184L357.24 64.7632H350.775ZM333.513 22.1117L326.017 44.1231H343.761L336.264 22.1117H333.513ZM368.967 15.8031H389.735C395.053 15.8031 399.156 17.0831 402.045 19.6431C404.933 22.2031 406.377 25.7917 406.377 30.4089C406.377 35.0717 404.933 38.706 402.045 41.3117C399.156 43.8717 395.053 45.1517 389.735 45.1517H375.156V64.7632H368.967V15.8031ZM375.156 39.666H388.703C396.314 39.666 400.119 36.6031 400.119 30.4774C400.119 24.3517 396.314 21.2889 388.703 21.2889H375.156V39.666Z" fill="white"/>
<path d="M231.269 15.5221L226.387 17.2258L228.143 22.7359L213.598 15.2381L193.894 26.0352V40.5981L201.8 37.8059L201.746 30.5515L213.598 24.2774L224.922 29.7875L219.267 31.8631L221.057 36.9472L236.673 31.3831L231.269 15.5221Z" fill="white"/>
<path d="M195.9 64.4847L200.782 62.7742L199.026 57.2641L213.564 64.7621L233.268 53.9716V39.4085L225.369 42.194L225.423 49.4485L213.564 55.7293L202.24 50.2192L207.895 48.1369L206.105 43.0596L190.496 48.6169L195.9 64.4847Z" fill="white"/>
</svg>
